<svg
        width="63.121086mm"
        height="64.249451mm"
        viewBox="0 0 63.121086 64.249451"
        version="1.1"
        xmlns="http://www.w3.org/2000/svg">
    <path
            fill="none"
            style="fill:none;stroke:#FFF;stroke-width:4;stroke-linecap:round;stroke-linejoin:miter;stroke-dasharray:none;stroke-opacity:1"
            d="m 30.328885,41.057224 c -1.47306,6.79367 4.81858,14.843905 12.04857,5.044955 4.96163,-6.72459 2.008092,-17.907323 -4.98562,-20.0018 -19.978502,-5.983163 -24.690647,22.453915 -14.89747,31.456835 6.716476,6.174493 17.245652,8.710239 26.29316,0.118705 6.725815,-6.386849 9.37588,-19.466548 7.06295,-26.649275 C 50.865405,15.545663 30.447596,8.2352788 18.517735,17.316212 7.3699675,25.80182 5.6995618,35.963093 5.6995618,43.639889 c 0,19.637961 14.1681762,29.50647 29.6742932,29.883161 19.746554,0.479705 31.02347,-21.95549 29.26079,-35.848926 -1.658666,-13.073599 -9.318098,-8.35398 -9.318098,-8.35398" />
</svg>
