<?xml version="1.0" encoding="UTF-8" standalone="no"?>
<!-- Created with Inkscape (http://www.inkscape.org/) -->

<svg
   width="144"
   height="144"
   viewBox="0 0 38.099999 38.1"
   version="1.1"
   id="svg5"
   xmlns="http://www.w3.org/2000/svg"
   xmlns:svg="http://www.w3.org/2000/svg">
  <defs
     id="defs2" />
  <g
     id="layer1">
    <g
       aria-label="C"
       id="text1516"
       style="font-size:46.4107px;line-height:1.25;fill:#1a100d;stroke-width:0.264583">
      <path
         id="path2301"
         style="font-family:Lemon;-inkscape-font-specification:Lemon"
         d="m 4.1289594,21.045662 q 0,-3.24875 1.392321,-6.59032 1.3923211,-3.387981 3.9449097,-6.2654449 2.5525889,-2.8774635 6.6367299,-4.6874809 4.130553,-1.856428 8.493159,-1.856428 4.409016,0 6.868784,1.6243745 2.506178,1.6243746 2.506178,4.5018381 0,2.8774632 -1.902839,4.5018382 -1.856428,1.577964 -4.269785,1.577964 -2.413356,0 -4.362606,-1.021036 -1.902838,-1.067446 -3.063106,-3.0166953 -2.506178,1.2066783 -4.316195,4.7338913 -1.810018,3.527214 -1.810018,7.100838 0,3.527213 1.160268,5.615695 1.160267,2.04207 3.29516,2.04207 2.134892,0 3.759267,-2.181303 1.670785,-2.181303 1.670785,-5.244409 4.687481,0 6.683141,0.742571 2.042071,0.742572 2.042071,3.202339 0,3.852088 -4.176963,7.240069 -4.176964,3.387981 -10.488819,3.387981 -6.311855,0 -10.2103544,-3.898498 Q 4.1289594,28.657017 4.1289594,21.045662 Z" />
    </g>
  </g>
</svg>
